<svg width="28" height="30" viewBox="0 0 28 30" fill="none" xmlns="http://www.w3.org/2000/svg">
<path d="M26.8186 6.21623L14.9561 0.284983C14.6589 0.137599 14.3316 0.0609131 13.9998 0.0609131C13.6681 0.0609131 13.3408 0.137599 13.0436 0.284983L1.18108 6.21623C0.762487 6.42693 0.424416 6.76892 0.218549 7.18991C0.0126825 7.6109 -0.0496547 8.08772 0.0410743 8.54748L1.70233 16.8512C2.38519 20.2687 4.31885 23.3082 7.12483 25.375L12.7348 29.5187C13.1018 29.7922 13.5472 29.94 14.0048 29.94C14.4625 29.94 14.9079 29.7922 15.2748 29.5187L15.9836 28.995C15.5121 28.5219 15.098 27.995 14.7498 27.425L14.0873 27.9137C14.0639 27.9314 14.0354 27.9409 14.0061 27.9409C13.9768 27.9409 13.9482 27.9314 13.9248 27.9137L8.31483 23.77C7.86509 23.4375 7.43867 23.0746 7.03858 22.6837C7.21351 21.6322 7.62406 20.6338 8.23948 19.7634C8.85491 18.893 9.65926 18.173 10.5923 17.6575L11.9998 16.875C12.7608 17.2071 13.5926 17.3445 14.4199 17.2747C15.2473 17.205 16.0443 16.9303 16.7389 16.4754C17.4336 16.0205 18.004 15.3998 18.3987 14.6693C18.7934 13.9388 19 13.1215 18.9998 12.2912V10.7087C18.9998 9.38265 18.473 8.11088 17.5354 7.1732C16.5977 6.23552 15.3259 5.70873 13.9998 5.70873C12.6737 5.70873 11.402 6.23552 10.4643 7.1732C9.52661 8.11088 8.99983 9.38265 8.99983 10.7087V12.2912C8.99926 13.497 9.43632 14.6621 10.2298 15.57L9.62483 15.9062C7.69125 16.9746 6.21421 18.7121 5.47107 20.7925C4.59098 19.481 3.97844 18.0087 3.66858 16.46L1.99983 8.15498C1.99435 8.12537 1.99857 8.09479 2.01186 8.06777C2.02514 8.04075 2.04679 8.01873 2.07358 8.00498L13.9361 2.07373C13.9556 2.06432 13.9769 2.05943 13.9986 2.05943C14.0202 2.05943 14.0416 2.06432 14.0611 2.07373L25.9236 7.99998C25.9504 8.01373 25.972 8.03575 25.9853 8.06277C25.9986 8.08979 26.0028 8.12037 25.9973 8.14998L24.6436 14.915C25.2988 15.129 25.9252 15.4229 26.5086 15.79L27.9586 8.53998C28.0475 8.08135 27.9843 7.60621 27.7786 7.18678C27.5728 6.76736 27.2357 6.42657 26.8186 6.21623ZM10.9998 10.7087C10.9998 9.91308 11.3159 9.15002 11.8785 8.58741C12.4411 8.0248 13.2042 7.70873 13.9998 7.70873C14.7955 7.70873 15.5585 8.0248 16.1211 8.58741C16.6838 9.15002 16.9998 9.91308 16.9998 10.7087V12.2912C16.9998 13.0869 16.6838 13.8499 16.1211 14.4126C15.5585 14.9752 14.7955 15.2912 13.9998 15.2912C13.2042 15.2912 12.4411 14.9752 11.8785 14.4126C11.3159 13.8499 10.9998 13.0869 10.9998 12.2912V10.7087Z" fill="url(#paint0_linear_11317_249)"/>
<defs>
<linearGradient id="paint0_linear_11317_249" x1="0.000488281" y1="0.0609131" x2="16.7117" y2="35.2932" gradientUnits="userSpaceOnUse">
<stop offset="0.272135" stop-color="#34263B"/>
<stop offset="0.658079" stop-color="#13172C"/>
</linearGradient>
</defs>
</svg>

